# xmcd CD database file
#
# Track frame offsets:
#	150
#	47248
#	97502
#	146571
#	210984
#	253672
#
# Disc length: 4151 seconds
#
# Revision: 0
# Processed by: cddbd v1.5.1PL2 Copyright (c) Steve Scherf et al.
# Submitted via: CDex 1.50
#
DISCID=48103506
DTITLE=GEORGE BENSON - Blue Bossa
DYEAR=2005
DGENRE=Jazz
TTITLE0=Blue Bossa
TTITLE1=Lil' Darling
TTITLE2=Invitations
TTITLE3=Love for sale
TTITLE4=The Masquarade Is Over
TTITLE5=All Blues
EXTD=YEAR: 2005
EXTT0=
EXTT1=
EXTT2=
EXTT3=
EXTT4=
EXTT5=
PLAYORDER=
